<svg
    width="49"
    height="40"
    viewBox="0 0 59 50"
    fill="none"
    xmlns="http://www.w3.org/2000/svg"
>
    <path
        d="M48 0H29.99C29.4622 0.00130466 28.956 0.209546 28.58 0.58L14.02 14.77L0.580003 28.4C0.205744 28.7791 -0.00244275 29.2914 0.00130868 29.8241C0.00506012 30.3568 0.220442 30.8662 0.600003 31.24L9.77 40.23L18.76 49.4C19.1338 49.7796 19.6432 49.9949 20.1759 49.9987C20.7086 50.0024 21.2209 49.7943 21.6 49.42L35.23 35.98L49.42 21.42C49.7905 21.044 49.9987 20.5378 50 20.01V2C49.9967 0.896798 49.1032 0.0032948 48 0ZM43 10C41.3431 10 40 8.65685 40 7C40 5.34315 41.3431 4 43 4C44.6569 4 46 5.34315 46 7C46 8.65685 44.6569 10 43 10Z"
        fill="#FF5364"
    />
    <path
        d="M43 11C40.7909 11 39 9.20914 39 7C39 4.79086 40.7909 3 43 3C45.2091 3 47 4.79086 47 7C47 8.06087 46.5786 9.07828 45.8284 9.82843C45.0783 10.5786 44.0609 11 43 11ZM43 5C41.8954 5 41 5.89543 41 7C41 8.10457 41.8954 9 43 9C44.1046 9 45 8.10457 45 7C45 5.89543 44.1046 5 43 5Z"
        fill="#BDC3C7"
    />
    <path
        d="M43 11C40.7909 11 39 9.20914 39 7C39 4.79086 40.7909 3 43 3C45.2091 3 47 4.79086 47 7C47 8.06087 46.5786 9.07828 45.8284 9.82843C45.0783 10.5786 44.0609 11 43 11ZM43 5C41.8954 5 41 5.89543 41 7C41 8.10457 41.8954 9 43 9C44.1046 9 45 8.10457 45 7C45 5.89543 44.1046 5 43 5Z"
        fill="#BDC3C7"
    />
    <path
        fill-rule="evenodd"
        clip-rule="evenodd"
        d="M59 8.5C59 11.07 55.56 13 51 13C50.66 13 50.32 12.99 50 12.97C49.9708 12.9618 49.9403 12.9584 49.91 12.96C47.7027 12.8807 45.5632 12.1768 43.74 10.93C43.4872 10.73 43.2648 10.4941 43.08 10.23C43.024 10.1594 42.977 10.0822 42.94 10H42.93C42.93 9.99 42.92 9.98 42.92 9.97C42.7238 9.65649 42.5944 9.30583 42.54 8.94C42.5114 8.79513 42.498 8.64766 42.5 8.5C42.5816 7.26263 43.291 6.15318 44.38 5.56C44.7746 5.93521 44.9986 6.45548 45 7C45.0015 7.25436 44.9504 7.50629 44.85 7.74C44.7089 7.89167 44.603 8.07265 44.54 8.27C44.5122 8.34344 44.4987 8.42149 44.5 8.5C44.5037 8.69574 44.5703 8.88509 44.69 9.04C44.7 9.05 44.7 9.06 44.71 9.07C44.7661 9.15829 44.8372 9.23612 44.92 9.3C45.1769 9.53422 45.4666 9.72962 45.78 9.88C47.1052 10.5035 48.5378 10.8668 50 10.95C50.0224 10.9582 50.0462 10.9616 50.07 10.96C50.38 10.99 50.69 11 51 11C54.72 11 57 9.54 57 8.5C57 7.46 54.72 6 51 6C50.6962 5.99791 50.3925 6.01126 50.09 6.04H50V4.04C50.32 4.01 50.66 4 51 4C55.56 4 59 5.93 59 8.5Z"
        fill="#A59078"
    />
</svg>